{
    "accessors" : [
        {
            "bufferView" : 0,
            "componentType" : 5121,
            "count" : 348,
            "max" : [
                231
            ],
            "min" : [
                0
            ],
            "type" : "SCALAR"
        },
        {
            "bufferView" : 1,
            "componentType" : 5126,
            "count" : 232,
            "max" : [
                1.0425388813018799,
                0.13932868838310242,
                1.0805717706680298
            ],
            "min" : [
                -1.1090062856674194,
                0.0,
                -1.0
            ],
            "type" : "VEC3"
        },
        {
            "bufferView" : 2,
            "componentType" : 5126,
            "count" : 232,
            "max" : [
                0.9964004158973694,
                1.0,
                1.0
            ],
            "min" : [
                -0.9974438548088074,
                -1.0,
                -0.9999999403953552
            ],
            "type" : "VEC3"
        },
        {
            "bufferView" : 3,
            "componentType" : 5126,
            "count" : 232,
            "max" : [
                1.0,
                0.024608245119452477,
                -0.0,
                1.0
            ],
            "min" : [
                -1.0345589544158429e-05,
                -0.021161450073122978,
                -1.0,
                -1.0
            ],
            "type" : "VEC4"
        },
        {
            "bufferView" : 4,
            "componentType" : 5126,
            "count" : 232,
            "max" : [
                0.9358556270599365,
                0.9805004838854074
            ],
            "min" : [
                0.0651136115193367,
                0.023251891136169434
            ],
            "type" : "VEC2"
        }
    ],
    "asset" : {
        "generator" : "Khronos Blender glTF 2.0 exporter",
        "version" : "2.0"
    },
    "bufferViews" : [
        {
            "buffer" : 0,
            "byteLength" : 348,
            "byteOffset" : 0,
            "target" : 34963
        },
        {
            "buffer" : 0,
            "byteLength" : 2784,
            "byteOffset" : 348,
            "target" : 34962
        },
        {
            "buffer" : 0,
            "byteLength" : 2784,
            "byteOffset" : 3132,
            "target" : 34962
        },
        {
            "buffer" : 0,
            "byteLength" : 3712,
            "byteOffset" : 5916,
            "target" : 34962
        },
        {
            "buffer" : 0,
            "byteLength" : 1856,
            "byteOffset" : 9628,
            "target" : 34962
        }
    ],
    "buffers" : [
        {
            "byteLength" : 11484,
            "uri" : "Papel.bin"
        }
    ],
    "images" : [
        {
            "name" : "Papel",
            "uri" : "Papel.png"
        }
    ],
    "materials" : [
        {
            "name" : "Material.003",
            "pbrMetallicRoughness" : {
                "baseColorTexture" : {
                    "index" : 0
                }
            }
        }
    ],
    "meshes" : [
        {
            "name" : "Plane.002",
            "primitives" : [
                {
                    "attributes" : {
                        "NORMAL" : 2,
                        "POSITION" : 1,
                        "TANGENT" : 3,
                        "TEXCOORD_0" : 4
                    },
                    "indices" : 0,
                    "material" : 0
                }
            ]
        }
    ],
    "nodes" : [
        {
            "mesh" : 0,
            "name" : "Plane.010",
            "rotation" : [
                0.5,
                -0.4999999403953552,
                -0.5,
                0.5000000596046448
            ],
            "scale" : [
                1.5343875885009766,
                0.4356316328048706,
                1.389315128326416
            ]
        }
    ],
    "samplers" : [
        {}
    ],
    "scene" : 0,
    "scenes" : [
        {
            "name" : "Scene",
            "nodes" : [
                0
            ]
        }
    ],
    "textures" : [
        {
            "sampler" : 0,
            "source" : 0
        }
    ]
}
